{
  "accessors": [
    {
      "bufferView": 2,
      "componentType": 5126,
      "count": 16060,
      "max": [
        15.296188354492188,
        15.463522911071777,
        3.3726537227630615
      ],
      "min": [
        -14.154269218444824,
        -24.98900604248047,
        -24.35848045349121
      ],
      "type": "VEC3"
    },
    {
      "bufferView": 2,
      "byteOffset": 192720,
      "componentType": 5126,
      "count": 16060,
      "max": [
        1.0,
        1.0,
        0.9771053194999695
      ],
      "min": [
        -1.0,
        -1.0,
        -1.0
      ],
      "type": "VEC3"
    },
    {
      "bufferView": 1,
      "componentType": 5126,
      "count": 16060,
      "max": [
        1.5859375,
        1.0008163452148438
      ],
      "min": [
        0.0027618408203125,
        0.00634765625
      ],
      "type": "VEC2"
    },
    {
      "bufferView": 0,
      "componentType": 5125,
      "count": 24528,
      "type": "SCALAR"
    },
    {
      "bufferView": 2,
      "byteOffset": 385440,
      "componentType": 5126,
      "count": 15177,
      "max": [
        14.560687065124512,
        14.409395217895508,
        3.427111864089966
      ],
      "min": [
        -13.396361351013184,
        -23.93012046813965,
        -99.41120910644531
      ],
      "type": "VEC3"
    },
    {
      "bufferView": 2,
      "byteOffset": 567564,
      "componentType": 5126,
      "count": 15177,
      "max": [
        1.0,
        1.0,
        1.0
      ],
      "min": [
        -1.0,
        -1.0,
        -1.0
      ],
      "type": "VEC3"
    },
    {
      "bufferView": 1,
      "byteOffset": 128480,
      "componentType": 5126,
      "count": 15177,
      "max": [
        4.08984375,
        1.0
      ],
      "min": [
        -12.5,
        0.0
      ],
      "type": "VEC2"
    },
    {
      "bufferView": 0,
      "byteOffset": 98112,
      "componentType": 5125,
      "count": 24876,
      "type": "SCALAR"
    },
    {
      "bufferView": 2,
      "byteOffset": 749688,
      "componentType": 5126,
      "count": 4664,
      "max": [
        23.126123428344727,
        14.444437026977539,
        3.4063799381256104
      ],
      "min": [
        -21.918161392211914,
        -23.96990203857422,
        -99.40887451171875
      ],
      "type": "VEC3"
    },
    {
      "bufferView": 2,
      "byteOffset": 805656,
      "componentType": 5126,
      "count": 4664,
      "max": [
        1.0,
        1.0,
        1.0
      ],
      "min": [
        -1.0,
        -1.0,
        -1.0
      ],
      "type": "VEC3"
    },
    {
      "bufferView": 1,
      "byteOffset": 249896,
      "componentType": 5126,
      "count": 4664,
      "max": [
        6.81640625,
        0.9975452423095703
      ],
      "min": [
        -5.8515625,
        -0.0283203125
      ],
      "type": "VEC2"
    },
    {
      "bufferView": 0,
      "byteOffset": 197616,
      "componentType": 5125,
      "count": 7917,
      "type": "SCALAR"
    },
    {
      "bufferView": 2,
      "byteOffset": 861624,
      "componentType": 5126,
      "count": 2058,
      "max": [
        14.903626441955566,
        10.027490615844727,
        3.3330914974212646
      ],
      "min": [
        -13.695662498474121,
        -19.552974700927734,
        -8.369026184082031
      ],
      "type": "VEC3"
    },
    {
      "bufferView": 2,
      "byteOffset": 886320,
      "componentType": 5126,
      "count": 2058,
      "max": [
        1.0,
        1.0,
        1.0
      ],
      "min": [
        -1.0,
        -1.0,
        -1.0
      ],
      "type": "VEC3"
    },
    {
      "bufferView": 1,
      "byteOffset": 287208,
      "componentType": 5126,
      "count": 2058,
      "max": [
        0.99951171875,
        1.0014257431030273
      ],
      "min": [
        0.007381439208984375,
        -0.2060546875
      ],
      "type": "VEC2"
    },
    {
      "bufferView": 0,
      "byteOffset": 229284,
      "componentType": 5125,
      "count": 3894,
      "type": "SCALAR"
    },
    {
      "bufferView": 2,
      "byteOffset": 911016,
      "componentType": 5126,
      "count": 2132,
      "max": [
        3.4756126403808594,
        14.56429386138916,
        2.829364538192749
      ],
      "min": [
        -2.270005226135254,
        -24.09000587463379,
        -7.706655025482178
      ],
      "type": "VEC3"
    },
    {
      "bufferView": 2,
      "byteOffset": 936600,
      "componentType": 5126,
      "count": 2132,
      "max": [
        1.0,
        1.0,
        1.0
      ],
      "min": [
        -1.0,
        -1.0,
        -1.0
      ],
      "type": "VEC3"
    },
    {
      "bufferView": 1,
      "byteOffset": 303672,
      "componentType": 5126,
      "count": 2132,
      "max": [
        0.95703125,
        0.9929008483886719
      ],
      "min": [
        0.004650115966796875,
        0.706298828125
      ],
      "type": "VEC2"
    },
    {
      "bufferView": 0,
      "byteOffset": 244860,
      "componentType": 5125,
      "count": 7752,
      "type": "SCALAR"
    },
    {
      "bufferView": 2,
      "byteOffset": 962184,
      "componentType": 5126,
      "count": 52658,
      "max": [
        19.046123504638672,
        15.435064315795898,
        3.170635938644409
      ],
      "min": [
        -18.438159942626953,
        -24.055023193359375,
        -99.84529876708984
      ],
      "type": "VEC3"
    },
    {
      "bufferView": 2,
      "byteOffset": 1594080,
      "componentType": 5126,
      "count": 52658,
      "max": [
        1.0,
        1.0,
        1.0
      ],
      "min": [
        -1.0,
        -1.0,
        -1.0
      ],
      "type": "VEC3"
    },
    {
      "bufferView": 1,
      "byteOffset": 320728,
      "componentType": 5126,
      "count": 52658,
      "max": [
        14.0,
        0.9968852996826172
      ],
      "min": [
        -13.4296875,
        0.00341796875
      ],
      "type": "VEC2"
    },
    {
      "bufferView": 0,
      "byteOffset": 275868,
      "componentType": 5125,
      "count": 97626,
      "type": "SCALAR"
    }
  ],
  "asset": {
    "extras": {
      "author": "frostychaos144 (https://sketchfab.com/frostychaos144)",
      "license": "CC-BY-4.0 (http://creativecommons.org/licenses/by/4.0/)",
      "source": "https://sketchfab.com/3d-models/lab-standoff-2-98d4915da22144aaa98a088390f81120",
      "title": "Lab standoff 2"
    },
    "generator": "Sketchfab-16.59.0",
    "version": "2.0"
  },
  "bufferViews": [
    {
      "buffer": 0,
      "byteLength": 666372,
      "name": "floatBufferViews",
      "target": 34963
    },
    {
      "buffer": 0,
      "byteLength": 741992,
      "byteOffset": 666372,
      "byteStride": 8,
      "name": "floatBufferViews",
      "target": 34962
    },
    {
      "buffer": 0,
      "byteLength": 2225976,
      "byteOffset": 1408364,
      "byteStride": 12,
      "name": "floatBufferViews",
      "target": 34962
    }
  ],
  "buffers": [
    {
      "byteLength": 3634340,
      "uri": "scene.bin"
    }
  ],
  "extensionsUsed": [
    "KHR_materials_specular"
  ],
  "images": [
    {
      "uri": "textures/Decals_baseColor.png"
    },
    {
      "uri": "textures/Decals_specularf0.png"
    },
    {
      "uri": "textures/Atlas_3_baseColor.png"
    },
    {
      "uri": "textures/Atlas_2_baseColor.png"
    },
    {
      "uri": "textures/Atlas_1_baseColor.png"
    },
    {
      "uri": "textures/Atlas_5_baseColor.png"
    },
    {
      "uri": "textures/Atlas_4_baseColor.png"
    }
  ],
  "materials": [
    {
      "alphaMode": "BLEND",
      "doubleSided": true,
      "extensions": {
        "KHR_materials_specular": {
          "specularColorFactor": [
            1.0,
            1.0,
            1.0
          ],
          "specularFactor": 1.0,
          "specularTexture": {
            "index": 1
          }
        }
      },
      "name": "Decals",
      "pbrMetallicRoughness": {
        "baseColorTexture": {
          "index": 0
        },
        "roughnessFactor": 0.552786
      }
    },
    {
      "alphaMode": "BLEND",
      "doubleSided": true,
      "extensions": {
        "KHR_materials_specular": {
          "specularColorFactor": [
            1.0,
            1.0,
            1.0
          ],
          "specularFactor": 1.0
        }
      },
      "name": "Atlas_3",
      "pbrMetallicRoughness": {
        "baseColorTexture": {
          "index": 2
        },
        "roughnessFactor": 0.552786
      }
    },
    {
      "doubleSided": true,
      "extensions": {
        "KHR_materials_specular": {
          "specularColorFactor": [
            1.0,
            1.0,
            1.0
          ],
          "specularFactor": 1.0
        }
      },
      "name": "Atlas_2",
      "pbrMetallicRoughness": {
        "baseColorTexture": {
          "index": 3
        },
        "roughnessFactor": 0.552786
      }
    },
    {
      "doubleSided": true,
      "extensions": {
        "KHR_materials_specular": {
          "specularColorFactor": [
            1.0,
            1.0,
            1.0
          ],
          "specularFactor": 1.0
        }
      },
      "name": "Atlas_1",
      "pbrMetallicRoughness": {
        "baseColorTexture": {
          "index": 4
        },
        "roughnessFactor": 0.552786
      }
    },
    {
      "alphaMode": "BLEND",
      "doubleSided": true,
      "extensions": {
        "KHR_materials_specular": {
          "specularColorFactor": [
            1.0,
            1.0,
            1.0
          ],
          "specularFactor": 1.0
        }
      },
      "name": "Atlas_5",
      "pbrMetallicRoughness": {
        "baseColorTexture": {
          "index": 5
        },
        "roughnessFactor": 0.552786
      }
    },
    {
      "doubleSided": true,
      "extensions": {
        "KHR_materials_specular": {
          "specularColorFactor": [
            1.0,
            1.0,
            1.0
          ],
          "specularFactor": 1.0
        }
      },
      "name": "Atlas_4",
      "pbrMetallicRoughness": {
        "baseColorTexture": {
          "index": 6
        },
        "roughnessFactor": 0.552786
      }
    }
  ],
  "meshes": [
    {
      "name": "Object_0",
      "primitives": [
        {
          "attributes": {
            "NORMAL": 1,
            "POSITION": 0,
            "TEXCOORD_0": 2
          },
          "indices": 3,
          "material": 0,
          "mode": 4
        }
      ]
    },
    {
      "name": "Object_1",
      "primitives": [
        {
          "attributes": {
            "NORMAL": 5,
            "POSITION": 4,
            "TEXCOORD_0": 6
          },
          "indices": 7,
          "material": 1,
          "mode": 4
        }
      ]
    },
    {
      "name": "Object_2",
      "primitives": [
        {
          "attributes": {
            "NORMAL": 9,
            "POSITION": 8,
            "TEXCOORD_0": 10
          },
          "indices": 11,
          "material": 2,
          "mode": 4
        }
      ]
    },
    {
      "name": "Object_3",
      "primitives": [
        {
          "attributes": {
            "NORMAL": 13,
            "POSITION": 12,
            "TEXCOORD_0": 14
          },
          "indices": 15,
          "material": 3,
          "mode": 4
        }
      ]
    },
    {
      "name": "Object_4",
      "primitives": [
        {
          "attributes": {
            "NORMAL": 17,
            "POSITION": 16,
            "TEXCOORD_0": 18
          },
          "indices": 19,
          "material": 4,
          "mode": 4
        }
      ]
    },
    {
      "name": "Object_5",
      "primitives": [
        {
          "attributes": {
            "NORMAL": 21,
            "POSITION": 20,
            "TEXCOORD_0": 22
          },
          "indices": 23,
          "material": 5,
          "mode": 4
        }
      ]
    }
  ],
  "nodes": [
    {
      "children": [
        1
      ],
      "matrix": [
        1.0,
        0.0,
        0.0,
        0.0,
        0.0,
        2.220446049250313e-16,
        -1.0,
        0.0,
        0.0,
        1.0,
        2.220446049250313e-16,
        0.0,
        0.0,
        0.0,
        0.0,
        1.0
      ],
      "name": "Sketchfab_model"
    },
    {
      "children": [
        2
      ],
      "name": "root"
    },
    {
      "children": [
        3
      ],
      "matrix": [
        1.0,
        0.0,
        0.0,
        0.0,
        0.0,
        2.220446049250313e-16,
        1.0,
        0.0,
        0.0,
        -1.0,
        2.220446049250313e-16,
        0.0,
        0.0,
        0.0,
        0.0,
        1.0
      ],
      "name": "GLTF_SceneRootNode"
    },
    {
      "children": [
        4,
        6,
        11
      ],
      "matrix": [
        5.0,
        0.0,
        0.0,
        0.0,
        0.0,
        0.0,
        5.0,
        0.0,
        0.0,
        -5.0,
        0.0,
        0.0,
        0.003000000026077032,
        -0.00430000014603138,
        -0.00039999998989515007,
        1.0
      ],
      "name": "Lab_Model_3"
    },
    {
      "children": [
        5
      ],
      "matrix": [
        1.0,
        0.0,
        0.0,
        0.0,
        0.0,
        1.0,
        0.0,
        0.0,
        0.0,
        0.0,
        1.0,
        0.0,
        0.30000001192092896,
        -0.03999999910593033,
        0.43000003695487976,
        1.0
      ],
      "name": "Decals_0"
    },
    {
      "mesh": 0,
      "name": "Object_5"
    },
    {
      "children": [
        7,
        8,
        9,
        10
      ],
      "matrix": [
        1.0,
        0.0,
        0.0,
        0.0,
        0.0,
        1.0,
        0.0,
        0.0,
        0.0,
        0.0,
        1.0,
        0.0,
        0.30000001192092896,
        -0.03999999910593033,
        0.43000003695487976,
        1.0
      ],
      "name": "Lab_01_1"
    },
    {
      "mesh": 1,
      "name": "Object_7"
    },
    {
      "mesh": 2,
      "name": "Object_8"
    },
    {
      "mesh": 3,
      "name": "Object_9"
    },
    {
      "mesh": 4,
      "name": "Object_10"
    },
    {
      "children": [
        12
      ],
      "matrix": [
        1.0,
        0.0,
        0.0,
        0.0,
        0.0,
        1.0,
        0.0,
        0.0,
        0.0,
        0.0,
        1.0,
        0.0,
        0.6259753704071045,
        -0.08635039627552032,
        0.865859866142273,
        1.0
      ],
      "name": "Lab_02_2"
    },
    {
      "mesh": 5,
      "name": "Object_12"
    }
  ],
  "samplers": [
    {
      "magFilter": 9729,
      "minFilter": 9987,
      "wrapS": 10497,
      "wrapT": 10497
    }
  ],
  "scene": 0,
  "scenes": [
    {
      "name": "Sketchfab_Scene",
      "nodes": [
        0
      ]
    }
  ],
  "textures": [
    {
      "sampler": 0,
      "source": 0
    },
    {
      "sampler": 0,
      "source": 1
    },
    {
      "sampler": 0,
      "source": 2
    },
    {
      "sampler": 0,
      "source": 3
    },
    {
      "sampler": 0,
      "source": 4
    },
    {
      "sampler": 0,
      "source": 5
    },
    {
      "sampler": 0,
      "source": 6
    }
  ]
}
