{
  "accessors": [
    {
      "bufferView": 2,
      "componentType": 5126,
      "count": 5609,
      "max": [
        780.8538208007813,
        1156.537841796875,
        708.7149658203125
      ],
      "min": [
        -1151.033447265625,
        -1232.79443359375,
        -744.63134765625
      ],
      "type": "VEC3"
    },
    {
      "bufferView": 2,
      "byteOffset": 67308,
      "componentType": 5126,
      "count": 5609,
      "max": [
        1.0,
        1.0,
        1.0
      ],
      "min": [
        -1.0,
        -1.0,
        -1.0
      ],
      "type": "VEC3"
    },
    {
      "bufferView": 3,
      "componentType": 5126,
      "count": 5609,
      "max": [
        1.0,
        1.0,
        1.0,
        1.0
      ],
      "min": [
        -1.0,
        -1.0,
        -1.0,
        -1.0
      ],
      "type": "VEC4"
    },
    {
      "bufferView": 1,
      "componentType": 5126,
      "count": 5609,
      "max": [
        1.9990234375,
        1.98291015625
      ],
      "min": [
        0.00018870830535888672,
        0.001953125
      ],
      "type": "VEC2"
    },
    {
      "bufferView": 1,
      "byteOffset": 44872,
      "componentType": 5126,
      "count": 5609,
      "max": [
        1.9990234375,
        1.98291015625
      ],
      "min": [
        0.00018870830535888672,
        0.001953125
      ],
      "type": "VEC2"
    },
    {
      "bufferView": 0,
      "componentType": 5125,
      "count": 8508,
      "type": "SCALAR"
    }
  ],
  "asset": {
    "extras": {
      "author": "Rex (https://sketchfab.com/rex_7)",
      "license": "CC-BY-4.0 (http://creativecommons.org/licenses/by/4.0/)",
      "source": "https://sketchfab.com/3d-models/pubg-mobile-solo-squad-house-dc1861ba0ac54f56b13b006f8974dcfd",
      "title": "PUBG Mobile Solo Squad House"
    },
    "generator": "Sketchfab-14.29.0",
    "version": "2.0"
  },
  "bufferViews": [
    {
      "buffer": 0,
      "byteLength": 34032,
      "name": "floatBufferViews",
      "target": 34963
    },
    {
      "buffer": 0,
      "byteLength": 89744,
      "byteOffset": 34032,
      "byteStride": 8,
      "name": "floatBufferViews",
      "target": 34962
    },
    {
      "buffer": 0,
      "byteLength": 134616,
      "byteOffset": 123776,
      "byteStride": 12,
      "name": "floatBufferViews",
      "target": 34962
    },
    {
      "buffer": 0,
      "byteLength": 89744,
      "byteOffset": 258392,
      "byteStride": 16,
      "name": "floatBufferViews",
      "target": 34962
    }
  ],
  "buffers": [
    {
      "byteLength": 348136,
      "uri": "scene.bin"
    }
  ],
  "images": [
    {
      "uri": "textures/HouseT3_baseColor.png"
    },
    {
      "uri": "textures/HouseT3_normal.png"
    }
  ],
  "materials": [
    {
      "doubleSided": true,
      "name": "HouseT3",
      "normalTexture": {
        "index": 1
      },
      "pbrMetallicRoughness": {
        "baseColorTexture": {
          "index": 0
        },
        "metallicFactor": 0.0
      }
    }
  ],
  "meshes": [
    {
      "name": "g_HouseT3_0",
      "primitives": [
        {
          "attributes": {
            "NORMAL": 1,
            "POSITION": 0,
            "TANGENT": 2,
            "TEXCOORD_0": 3,
            "TEXCOORD_1": 4
          },
          "indices": 5,
          "material": 0,
          "mode": 4
        }
      ]
    }
  ],
  "nodes": [
    {
      "children": [
        1
      ],
      "matrix": [
        1.0,
        0.0,
        0.0,
        0.0,
        0.0,
        2.220446049250313e-16,
        -1.0,
        0.0,
        0.0,
        1.0,
        2.220446049250313e-16,
        0.0,
        0.0,
        0.0,
        0.0,
        1.0
      ],
      "name": "Sketchfab_model"
    },
    {
      "children": [
        2
      ],
      "matrix": [
        0.009999999776482582,
        0.0,
        0.0,
        0.0,
        0.0,
        0.0,
        0.009999999776482582,
        0.0,
        0.0,
        -0.009999999776482582,
        0.0,
        0.0,
        0.0,
        0.0,
        0.0,
        1.0
      ],
      "name": "8d1e5d2a454e4fc785382df4466c64c2.fbx"
    },
    {
      "children": [
        3
      ],
      "name": "RootNode"
    },
    {
      "children": [
        4
      ],
      "matrix": [
        0.8179536235719724,
        1.1102229584507075e-16,
        -0.5752840606832368,
        -0.0,
        0.5752840606832351,
        -7.5497894987661e-08,
        0.8179536235719701,
        -0.0,
        4.3432740737259223e-08,
        0.9999999999999972,
        6.175378430839373e-08,
        -0.0,
        1533.3494873046875,
        911.6058349609375,
        -29069.8828125,
        1.0
      ],
      "name": "g"
    },
    {
      "mesh": 0,
      "name": "g_HouseT3_0"
    }
  ],
  "samplers": [
    {
      "magFilter": 9729,
      "minFilter": 9987,
      "wrapS": 10497,
      "wrapT": 10497
    }
  ],
  "scene": 0,
  "scenes": [
    {
      "name": "Sketchfab_Scene",
      "nodes": [
        0
      ]
    }
  ],
  "textures": [
    {
      "sampler": 0,
      "source": 0
    },
    {
      "sampler": 0,
      "source": 1
    }
  ]
}
