{
  "accessors": [
    {
      "bufferView": 3,
      "componentType": 5126,
      "count": 4026,
      "max": [
        30.232585906982422,
        27.04581069946289,
        34.97277069091797
      ],
      "min": [
        -30.232587814331055,
        6.608752250671387,
        -26.16725730895996
      ],
      "type": "VEC3"
    },
    {
      "bufferView": 3,
      "byteOffset": 48312,
      "componentType": 5126,
      "count": 4026,
      "max": [
        0.9999535083770752,
        0.9991320967674255,
        0.9996291399002075
      ],
      "min": [
        -0.9999534487724304,
        -0.9999780654907227,
        -0.9166170954704285
      ],
      "type": "VEC3"
    },
    {
      "bufferView": 4,
      "componentType": 5126,
      "count": 4026,
      "max": [
        0.9992191195487976,
        0.9974561929702759,
        0.9999476075172424,
        1.0
      ],
      "min": [
        -0.9992190599441528,
        -0.9982020258903503,
        -0.9958213567733765,
        -1.0
      ],
      "type": "VEC4"
    },
    {
      "bufferView": 2,
      "componentType": 5126,
      "count": 4026,
      "max": [
        0.8773013353347778,
        0.9945838451385498
      ],
      "min": [
        0.005416172556579113,
        0.005416154861450195
      ],
      "type": "VEC2"
    },
    {
      "bufferView": 1,
      "componentType": 5125,
      "count": 21084,
      "type": "SCALAR"
    },
    {
      "bufferView": 5,
      "componentType": 5126,
      "count": 47,
      "max": [
        1.0,
        0.7830423712730408,
        0.8110120296478271,
        0.0,
        0.8732178807258606,
        1.0,
        0.6473560929298401,
        0.0,
        0.2924157381057739,
        0.9154017567634583,
        1.0,
        0.0,
        24.24747657775879,
        17.85945701599121,
        26.408445358276367,
        1.0
      ],
      "min": [
        -0.9998540282249451,
        -0.7830423712730408,
        -0.8110120296478271,
        0.0,
        -0.8732178807258606,
        0.2756274938583374,
        -0.1751556396484375,
        0.0,
        -0.2924157381057739,
        -0.7764747142791748,
        -0.9898102283477783,
        0.0,
        -24.24747657775879,
        -36.76809310913086,
        -38.22383117675781,
        1.0
      ],
      "type": "MAT4"
    },
    {
      "bufferView": 0,
      "componentType": 5123,
      "count": 4026,
      "type": "VEC4"
    },
    {
      "bufferView": 4,
      "byteOffset": 64416,
      "componentType": 5126,
      "count": 4026,
      "max": [
        1.0,
        0.49978411197662354,
        0.25824615359306335,
        0.07309401780366898
      ],
      "min": [
        0.3853268623352051,
        0.0,
        0.0,
        0.0
      ],
      "type": "VEC4"
    }
  ],
  "asset": {
    "extras": {
      "author": "DJMaesen (https://sketchfab.com/bumstrum)",
      "license": "CC-BY-4.0 (http://creativecommons.org/licenses/by/4.0/)",
      "source": "https://sketchfab.com/3d-models/fps-arms-08ec4403a47645d8ad80633abf13d39d",
      "title": "fps arms"
    },
    "generator": "Sketchfab-12.66.0",
    "version": "2.0"
  },
  "bufferViews": [
    {
      "buffer": 0,
      "byteLength": 32208,
      "byteStride": 8,
      "name": "shortBufferViews",
      "target": 34962
    },
    {
      "buffer": 0,
      "byteLength": 84336,
      "byteOffset": 32208,
      "name": "floatBufferViews",
      "target": 34963
    },
    {
      "buffer": 0,
      "byteLength": 32208,
      "byteOffset": 116544,
      "byteStride": 8,
      "name": "floatBufferViews",
      "target": 34962
    },
    {
      "buffer": 0,
      "byteLength": 96624,
      "byteOffset": 148752,
      "byteStride": 12,
      "name": "floatBufferViews",
      "target": 34962
    },
    {
      "buffer": 0,
      "byteLength": 128832,
      "byteOffset": 245376,
      "byteStride": 16,
      "name": "floatBufferViews",
      "target": 34962
    },
    {
      "buffer": 0,
      "byteLength": 3008,
      "byteOffset": 374208,
      "name": "floatBufferViews"
    }
  ],
  "buffers": [
    {
      "byteLength": 377216,
      "uri": "scene.bin"
    }
  ],
  "extensionsRequired": [
    "KHR_materials_pbrSpecularGlossiness"
  ],
  "extensionsUsed": [
    "KHR_materials_pbrSpecularGlossiness"
  ],
  "images": [
    {
      "uri": "textures/material_diffuse.png"
    },
    {
      "uri": "textures/material_specularGlossiness.png"
    },
    {
      "uri": "textures/material_normal.png"
    },
    {
      "uri": "textures/material_occlusion.png"
    }
  ],
  "materials": [
    {
      "extensions": {
        "KHR_materials_pbrSpecularGlossiness": {
          "diffuseFactor": [
            1.0,
            1.0,
            1.0,
            1.0
          ],
          "diffuseTexture": {
            "index": 0
          },
          "glossinessFactor": 1.0,
          "specularFactor": [
            1.0,
            1.0,
            1.0
          ],
          "specularGlossinessTexture": {
            "index": 1
          }
        }
      },
      "name": "material",
      "normalTexture": {
        "index": 2
      },
      "occlusionTexture": {
        "index": 3,
        "strength": 0.4102515244
      }
    }
  ],
  "meshes": [
    {
      "name": "armmesh_Mat_0",
      "primitives": [
        {
          "attributes": {
            "JOINTS_0": 6,
            "NORMAL": 1,
            "POSITION": 0,
            "TANGENT": 2,
            "TEXCOORD_0": 3,
            "TEXCOORD_1": 3,
            "TEXCOORD_2": 3,
            "WEIGHTS_0": 7
          },
          "indices": 4,
          "material": 0,
          "mode": 4
        }
      ]
    }
  ],
  "nodes": [
    {
      "children": [
        1
      ],
      "matrix": [
        1.0,
        0.0,
        0.0,
        0.0,
        0.0,
        2.220446049250313e-16,
        -1.0,
        0.0,
        0.0,
        1.0,
        2.220446049250313e-16,
        0.0,
        0.0,
        0.0,
        0.0,
        1.0
      ],
      "name": "Sketchfab_model"
    },
    {
      "children": [
        2
      ],
      "matrix": [
        1.0,
        0.0,
        0.0,
        0.0,
        0.0,
        0.0,
        1.0,
        0.0,
        0.0,
        -1.0,
        0.0,
        0.0,
        0.0,
        0.0,
        0.0,
        1.0
      ],
      "name": "5585fa1675064d26b9624a68ade9d42b.fbx"
    },
    {
      "children": [
        3
      ],
      "name": "RootNode"
    },
    {
      "children": [
        4,
        6,
        5
      ],
      "name": "Object_3"
    },
    {
      "children": [
        7,
        30
      ],
      "name": "_rootJoint"
    },
    {
      "matrix": [
        -0.06924756995869101,
        -0.16841786147689844,
        -0.9832803252330256,
        0.0,
        -0.37248423571209643,
        0.9187277548631182,
        -0.1311289693017901,
        0.0,
        0.925451386189891,
        0.3571760579598282,
        -0.12635266289036307,
        0.0,
        -14.614948308146708,
        -0.16994125939707772,
        0.0,
        1.0
      ],
      "name": "Object_5"
    },
    {
      "mesh": 0,
      "name": "Object_6",
      "skin": 0
    },
    {
      "children": [
        8
      ],
      "name": "L_arm_01",
      "rotation": [
        -0.0970107913017273,
        0.8680832982063293,
        0.40373197197914124,
        -0.2720676362514496
      ],
      "translation": [
        10.028533935546875,
        12.437085151672363,
        -18.110767364501953
      ]
    },
    {
      "children": [
        9
      ],
      "name": "L_elbow_02",
      "rotation": [
        0.20175360143184662,
        -0.559175968170166,
        0.29160985350608826,
        0.7493873238563538
      ],
      "translation": [
        3.552713678800501e-15,
        -7.105427357601002e-15,
        -25.86972427368164
      ]
    },
    {
      "children": [
        10,
        14,
        18,
        22,
        26
      ],
      "name": "L_wrist_03",
      "rotation": [
        -0.17998036742210388,
        -0.0037056365981698036,
        -0.11109887808561325,
        0.9773691296577454
      ],
      "translation": [
        -1.0302869668521453e-13,
        -5.3290705182007514e-15,
        -25.4316463470459
      ]
    },
    {
      "children": [
        11
      ],
      "name": "L_thumb1_04",
      "rotation": [
        0.19697289168834686,
        -0.24204881489276886,
        -0.533703625202179,
        0.7859863042831421
      ],
      "translation": [
        2.5046579837799072,
        0.750840961933136,
        -3.6857149600982666
      ]
    },
    {
      "children": [
        12
      ],
      "name": "L_thumb2_05",
      "rotation": [
        -0.20629571378231049,
        0.16086657345294952,
        0.03996114805340767,
        0.9643480181694031
      ],
      "translation": [
        -7.105427357601002e-15,
        7.105427357601002e-15,
        -4.264993667602539
      ]
    },
    {
      "children": [
        13
      ],
      "name": "L_thumb3_06",
      "rotation": [
        0.10112524032592773,
        -0.02014545165002346,
        0.0020481348037719727,
        0.9946677088737488
      ],
      "translation": [
        -5.3290705182007514e-15,
        3.552713678800501e-15,
        -2.6085004806518555
      ]
    },
    {
      "name": "L_thumb4_07",
      "rotation": [
        -2.0816681711721685e-16,
        -1.6375789613221059e-15,
        -3.885780586188048e-16,
        1.0
      ],
      "translation": [
        1.0658141036401503e-14,
        3.552713678800501e-15,
        -3.3831698894500732
      ]
    },
    {
      "children": [
        15
      ],
      "name": "L_point1_08",
      "rotation": [
        0.018442826345562935,
        -0.06060667335987091,
        -0.17238503694534302,
        0.9829903841018677
      ],
      "translation": [
        2.386730432510376,
        6.076923370361328,
        -9.082249641418457
      ]
    },
    {
      "children": [
        16
      ],
      "name": "L_point2_09",
      "rotation": [
        -0.13503660261631012,
        -0.004184102639555931,
        0.11169513314962387,
        0.9845160245895386
      ],
      "translation": [
        0.0,
        6.217248937900877e-15,
        -3.209785223007202
      ]
    },
    {
      "children": [
        17
      ],
      "name": "L_point3_010",
      "rotation": [
        -0.10049192607402802,
        -0.03329356759786606,
        -0.034265100955963135,
        0.9937901496887207
      ],
      "translation": [
        -1.0658141036401503e-14,
        -7.105427357601002e-15,
        -2.3490965366363525
      ]
    },
    {
      "name": "L_point4_011",
      "rotation": [
        -0.11375415325164795,
        7.841046858459612e-17,
        -7.483295875741858e-17,
        0.9935089349746704
      ],
      "translation": [
        -3.552713678800501e-15,
        3.552713678800501e-15,
        -2.0011179447174072
      ]
    },
    {
      "children": [
        19
      ],
      "name": "L_middle1_012",
      "rotation": [
        0.0007909405394457281,
        0.003263408550992608,
        0.22055219113826752,
        0.975369393825531
      ],
      "translation": [
        -0.31304535269737244,
        5.81611442565918,
        -9.119787216186523
      ]
    },
    {
      "children": [
        20
      ],
      "name": "L_middle2_00",
      "rotation": [
        -0.3199516236782074,
        0.04231676459312439,
        0.031167946755886078,
        0.9459750652313232
      ],
      "translation": [
        3.552713678800501e-15,
        7.105427357601002e-15,
        -3.4955577850341797
      ]
    },
    {
      "children": [
        21
      ],
      "name": "L_middle3_013",
      "rotation": [
        -0.38365083932876587,
        -0.07707204669713974,
        0.06203392148017883,
        0.9181633591651917
      ],
      "translation": [
        1.7763568394002505e-15,
        2.842170943040401e-14,
        -3.149162769317627
      ]
    },
    {
      "name": "L_middle4_014",
      "rotation": [
        -2.1094237467877974e-15,
        -1.3877787807814457e-15,
        2.7755575615628914e-17,
        1.0
      ],
      "translation": [
        8.881784197001252e-16,
        -1.7763568394002505e-14,
        -1.9866963624954224
      ]
    },
    {
      "children": [
        23
      ],
      "name": "L_ring1_015",
      "rotation": [
        -0.06727393716573715,
        -0.024623045697808266,
        0.27135169506073,
        0.9598104953765869
      ],
      "translation": [
        -2.1884665489196777,
        4.2294816970825195,
        -8.968705177307129
      ]
    },
    {
      "children": [
        24
      ],
      "name": "L_ring2_016",
      "rotation": [
        -0.36030033230781555,
        0.03357850760221481,
        0.0979253500699997,
        0.9270743131637573
      ],
      "translation": [
        1.7763568394002505e-15,
        7.105427357601002e-15,
        -3.220353603363037
      ]
    },
    {
      "children": [
        25
      ],
      "name": "L_ring3_017",
      "rotation": [
        -0.06181269511580467,
        -0.09234289824962616,
        -0.005743630230426788,
        0.9937902092933655
      ],
      "translation": [
        1.0658141036401503e-14,
        -1.4210854715202004e-14,
        -2.9250996112823486
      ]
    },
    {
      "name": "L_ring4_018",
      "rotation": [
        1.429412144204889e-15,
        1.8318679906315083e-15,
        -3.0531133177191805e-16,
        1.0
      ],
      "translation": [
        -1.4210854715202004e-14,
        -3.552713678800501e-15,
        -2.2898952960968018
      ]
    },
    {
      "children": [
        27
      ],
      "name": "L_pink1_019",
      "rotation": [
        -0.1600281298160553,
        -0.03781167417764664,
        0.42947453260421753,
        0.8879824876785278
      ],
      "translation": [
        -3.1716322898864746,
        1.599752426147461,
        -8.692392349243164
      ]
    },
    {
      "children": [
        28
      ],
      "name": "L_pink2_020",
      "rotation": [
        -0.4291207194328308,
        -0.043408092111349106,
        -0.02065187506377697,
        0.9019671082496643
      ],
      "translation": [
        0.0,
        -7.105427357601002e-15,
        -2.772439956665039
      ]
    },
    {
      "children": [
        29
      ],
      "name": "L_pink3_021",
      "rotation": [
        -0.26163798570632935,
        0.024715477600693703,
        0.0067022512666881084,
        0.9648262858390808
      ],
      "translation": [
        -8.881784197001252e-16,
        0.0,
        -2.0493390560150146
      ]
    },
    {
      "name": "L_pink4_022",
      "rotation": [
        -1.7486012637846216e-15,
        -2.858824288409778e-15,
        2.7755575615628914e-17,
        1.0
      ],
      "translation": [
        1.7763568394002505e-14,
        -1.5987211554602254e-14,
        -2.0744128227233887
      ]
    },
    {
      "children": [
        31
      ],
      "name": "R_arm_023",
      "rotation": [
        -0.007864023558795452,
        0.8468267321586609,
        0.4598201513290405,
        0.26718538999557495
      ],
      "translation": [
        -13.716401100158691,
        14.864255905151367,
        -18.710588455200195
      ]
    },
    {
      "children": [
        32
      ],
      "name": "R_elbow_024",
      "rotation": [
        0.3055046498775482,
        0.5434808135032654,
        -0.15936227142810822,
        0.7654405236244202
      ],
      "translation": [
        -1.5631940186722204e-13,
        -2.984279490192421e-13,
        -25.86972427368164
      ]
    },
    {
      "children": [
        33,
        37,
        41,
        45,
        49
      ],
      "name": "R_wrist_025",
      "rotation": [
        -0.07812967151403427,
        -0.19695301353931427,
        0.02811424434185028,
        0.976890504360199
      ],
      "translation": [
        -7.460698725481052e-14,
        -7.105427357601002e-15,
        -25.4316463470459
      ]
    },
    {
      "children": [
        34
      ],
      "name": "R_thumb1_026",
      "rotation": [
        0.2845946252346039,
        0.29945051670074463,
        0.420000284910202,
        0.8080439567565918
      ],
      "translation": [
        -2.5046579837799072,
        0.750840961933136,
        -3.6857149600982666
      ]
    },
    {
      "children": [
        35
      ],
      "name": "R_thumb2_027",
      "rotation": [
        -0.3027096390724182,
        -0.15141183137893677,
        -0.048774223774671555,
        0.9397140145301819
      ],
      "translation": [
        3.552713678800501e-15,
        1.0658141036401503e-14,
        -4.264993667602539
      ]
    },
    {
      "children": [
        36
      ],
      "name": "R_thumb3_028",
      "rotation": [
        0.1361948698759079,
        0.021222706884145737,
        0.10830699652433395,
        0.9845151901245117
      ],
      "translation": [
        1.7763568394002505e-15,
        3.552713678800501e-15,
        -2.6085004806518555
      ]
    },
    {
      "name": "R_thumb4_029",
      "rotation": [
        2.914335439641036e-16,
        1.8596235662471372e-15,
        1.0408340855860843e-16,
        1.0
      ],
      "translation": [
        -1.2434497875801753e-14,
        0.0,
        -3.3831698894500732
      ]
    },
    {
      "children": [
        38
      ],
      "name": "R_point1_030",
      "rotation": [
        0.04761727526783943,
        0.03261649236083031,
        -0.01271873340010643,
        0.9982519745826721
      ],
      "translation": [
        -2.386730432510376,
        6.076923370361328,
        -9.082249641418457
      ]
    },
    {
      "children": [
        39
      ],
      "name": "R_point2_031",
      "rotation": [
        -0.07685189694166183,
        0.06564293801784515,
        -0.0028979843482375145,
        0.9948750734329224
      ],
      "translation": [
        9.592326932761353e-14,
        9.414691248821327e-14,
        -3.209785223007202
      ]
    },
    {
      "children": [
        40
      ],
      "name": "R_point3_032",
      "rotation": [
        -0.08844900131225586,
        -0.06289112567901611,
        -0.00559579860419035,
        0.9940775632858276
      ],
      "translation": [
        1.7763568394002505e-14,
        0.0,
        -2.3490965366363525
      ]
    },
    {
      "name": "R_point4_033",
      "rotation": [
        1.582067810090848e-15,
        -2.5283594662361963e-16,
        -1.7672495411513722e-16,
        1.0
      ],
      "translation": [
        -3.552713678800501e-15,
        7.105427357601002e-15,
        -2.0011179447174072
      ]
    },
    {
      "children": [
        42
      ],
      "name": "R_middle1_034",
      "rotation": [
        -0.014797587879002094,
        0.021671410650014877,
        -0.2640308737754822,
        0.9641571640968323
      ],
      "translation": [
        0.31304535269737244,
        5.81611442565918,
        -9.119787216186523
      ]
    },
    {
      "children": [
        43
      ],
      "name": "R_middle2_035",
      "rotation": [
        -0.13647016882896423,
        0.033128853887319565,
        -0.011417580768465996,
        0.9900242686271667
      ],
      "translation": [
        -1.4210854715202004e-14,
        1.7763568394002505e-14,
        -3.4955577850341797
      ]
    },
    {
      "children": [
        44
      ],
      "name": "R_middle3_036",
      "rotation": [
        -0.32096067070961,
        0.048089999705553055,
        0.03222087025642395,
        0.9453218579292297
      ],
      "translation": [
        -3.552713678800501e-15,
        3.907985046680551e-14,
        -3.149162769317627
      ]
    },
    {
      "name": "R_middle4_037",
      "rotation": [
        -2.1094237467877974e-15,
        1.214306433183765e-15,
        1.8561541192951836e-16,
        1.0
      ],
      "translation": [
        1.7763568394002505e-15,
        -3.552713678800501e-14,
        -1.9866963624954224
      ]
    },
    {
      "children": [
        46
      ],
      "name": "R_ring1_038",
      "rotation": [
        -0.050168924033641815,
        0.046012889593839645,
        -0.24794408679008484,
        0.9663796424865723
      ],
      "translation": [
        2.1884665489196777,
        4.2294816970825195,
        -8.968705177307129
      ]
    },
    {
      "children": [
        47
      ],
      "name": "R_ring2_039",
      "rotation": [
        -0.23161032795906067,
        0.007499629631638527,
        -0.12057670950889587,
        0.9652780294418335
      ],
      "translation": [
        -5.3290705182007514e-15,
        2.1316282072803006e-14,
        -3.220353603363037
      ]
    },
    {
      "children": [
        48
      ],
      "name": "R_ring3_040",
      "rotation": [
        -0.3601631224155426,
        0.06397925317287445,
        0.024744851514697075,
        0.9303638339042664
      ],
      "translation": [
        -9.769962616701378e-15,
        -1.4210854715202004e-14,
        -2.9250996112823486
      ]
    },
    {
      "name": "R_ring4_041",
      "rotation": [
        3.390302621975039e-11,
        -2.241243649003799e-11,
        7.450580596923828e-09,
        1.0
      ],
      "translation": [
        1.0264766814316317e-10,
        1.552677986182971e-10,
        -2.2898952960968018
      ]
    },
    {
      "children": [
        50
      ],
      "name": "R_pink1_042",
      "rotation": [
        0.007710970472544432,
        -0.0260775089263916,
        -0.42528459429740906,
        0.9046510457992554
      ],
      "translation": [
        3.1716322898864746,
        1.599752426147461,
        -8.692392349243164
      ]
    },
    {
      "children": [
        51
      ],
      "name": "R_pink2_043",
      "rotation": [
        -0.3900499641895294,
        0.09322105348110199,
        -0.0046124206855893135,
        0.9160510897636414
      ],
      "translation": [
        -1.2434497875801753e-14,
        -1.0658141036401503e-14,
        -2.772439956665039
      ]
    },
    {
      "children": [
        52
      ],
      "name": "R_pink3_044",
      "rotation": [
        -0.18788255751132965,
        -0.02515176497399807,
        -0.0048128943890333176,
        0.9818577170372009
      ],
      "translation": [
        -3.552713678800501e-15,
        -7.105427357601002e-15,
        -2.0493390560150146
      ]
    },
    {
      "name": "R_pink4_045",
      "rotation": [
        -1.9567680809018384e-15,
        2.931682674400804e-15,
        4.163336342344337e-17,
        1.0
      ],
      "translation": [
        -1.4210854715202004e-14,
        -1.4210854715202004e-14,
        -2.0744128227233887
      ]
    }
  ],
  "samplers": [
    {
      "magFilter": 9729,
      "minFilter": 9987,
      "wrapS": 10497,
      "wrapT": 10497
    }
  ],
  "scene": 0,
  "scenes": [
    {
      "name": "Sketchfab_Scene",
      "nodes": [
        0
      ]
    }
  ],
  "skins": [
    {
      "inverseBindMatrices": 5,
      "joints": [
        4,
        7,
        8,
        9,
        10,
        11,
        12,
        13,
        14,
        15,
        16,
        17,
        18,
        19,
        20,
        21,
        22,
        23,
        24,
        25,
        26,
        27,
        28,
        29,
        30,
        31,
        32,
        33,
        34,
        35,
        36,
        37,
        38,
        39,
        40,
        41,
        42,
        43,
        44,
        45,
        46,
        47,
        48,
        49,
        50,
        51,
        52
      ],
      "skeleton": 4
    }
  ],
  "textures": [
    {
      "sampler": 0,
      "source": 0
    },
    {
      "sampler": 0,
      "source": 1
    },
    {
      "sampler": 0,
      "source": 2
    },
    {
      "sampler": 0,
      "source": 3
    }
  ]
}
